<?xml version="1.0" encoding="UTF-8" standalone="no"?>
<svg
   id="b"
   data-name="Layer 2"
   viewBox="0 0 248.34766 119.19999"
   version="1.1"
   sodipodi:docname="logo2.svg"
   width="248.34766"
   height="119.2"
   inkscape:version="1.2.2 (b0a8486541, 2022-12-01)"
   xmlns:inkscape="http://www.inkscape.org/namespaces/inkscape"
   xmlns:sodipodi="http://sodipodi.sourceforge.net/DTD/sodipodi-0.dtd"
   xmlns="http://www.w3.org/2000/svg"
   xmlns:svg="http://www.w3.org/2000/svg">
  <defs
     id="defs116" />
  <sodipodi:namedview
     id="namedview114"
     pagecolor="#ffffff"
     bordercolor="#000000"
     borderopacity="0.25"
     inkscape:showpageshadow="2"
     inkscape:pageopacity="0.0"
     inkscape:pagecheckerboard="0"
     inkscape:deskcolor="#d1d1d1"
     showgrid="false"
     inkscape:zoom="7.1659942"
     inkscape:cx="68.657605"
     inkscape:cy="107.59149"
     inkscape:window-width="3840"
     inkscape:window-height="2010"
     inkscape:window-x="0"
     inkscape:window-y="1720"
     inkscape:window-maximized="1"
     inkscape:current-layer="g110" />
  <g
     id="c"
     data-name="Layer 1">
    <g
       id="g110">
      <g
         id="g96" />
      <g
         id="g104"
         transform="translate(0,2.4186439)">
        <path
           d="m 120,109.38 c 0,4.12 -3.38,7.5 -7.5,7.5 H 7.5 c -4.12,0 -7.5,-3.38 -7.5,-7.5 v -45 C 0,60.26 2.39,54.49 5.3,51.58 L 54.7,2.19 c 2.92,-2.92 7.69,-2.92 10.61,0 l 49.39,49.39 c 2.92,2.92 5.3,8.68 5.3,12.8 z"
           fill="#18bcf2"
           stroke-width="0"
           id="path100" />
        <path
           d="M 80,39.21 H 40 c -1.66,0 -3,1.34 -3,3 v 74.67 h 6 V 45.21 h 34 v 6 H 52 c -1.66,0 -3,1.34 -3,3 v 12 c 0,1.66 1.34,3 3,3 h 25 v 6 H 52 c -1.66,0 -3,1.34 -3,3 v 12 c 0,1.66 1.34,3 3,3 h 25 v 6 H 52 c -1.66,0 -3,1.34 -3,3 0,1.66 1.34,3 3,3 h 28 c 1.66,0 3,-1.34 3,-3 v -12 c 0,-1.66 -1.34,-3 -3,-3 H 55 v -6 h 25 c 1.66,0 3,-1.34 3,-3 v -12 c 0,-1.66 -1.34,-3 -3,-3 H 55 v -6 h 25 c 1.66,0 3,-1.34 3,-3 v -12 c 0,-1.66 -1.34,-3 -3,-3 z"
           fill="#f2f4f9"
           stroke-width="0"
           id="path102" />
      </g>
      <g
         id="g375"
         transform="translate(128.34765,-137.68012)">
        <rect
           x="0"
           y="137.88"
           width="120"
           height="120"
           rx="8"
           ry="8"
           fill="#007fa8"
           stroke-width="0"
           id="rect98" />
        <path
           d="m 60,259.88 c -1.66,0 -3,-1.34 -3,-3 v -17.11 c 0,-4.96 -2.75,-9.41 -7.19,-11.63 L 33.97,220.22 C 30.9,218.68 29,215.6 29,212.17 v -22.82 c 0,-2.44 1.24,-4.67 3.32,-5.95 2.08,-1.28 4.63,-1.4 6.81,-0.31 l 22.21,11.11 c 1.02,0.51 1.66,1.55 1.66,2.68 v 20.06 c 0,1.77 0.86,3.32 2.37,4.25 1.51,0.93 3.28,1.01 4.87,0.22 l 13.11,-6.55 c 1.02,-0.51 1.66,-1.54 1.66,-2.68 V 186.6 c 0,-1.14 -0.64,-2.17 -1.66,-2.68 L 62.24,173.37 c -1.4,-0.7 -3.07,-0.7 -4.47,0 l -14.42,7.21 c -1.48,0.74 -3.28,0.14 -4.03,-1.34 -0.74,-1.48 -0.14,-3.28 1.34,-4.03 L 55.08,168 c 3.08,-1.54 6.76,-1.54 9.84,0 l 21.11,10.55 c 3.07,1.54 4.97,4.62 4.97,8.05 v 25.58 c 0,3.43 -1.91,6.51 -4.97,8.05 l -13.11,6.55 c -3.43,1.72 -7.44,1.54 -10.7,-0.48 C 58.95,224.28 57,220.78 57,216.94 v -18.2 L 36.45,188.46 c -0.43,-0.22 -0.8,-0.07 -0.97,0.04 -0.18,0.11 -0.47,0.37 -0.47,0.85 v 22.82 c 0,1.14 0.64,2.17 1.66,2.68 l 15.84,7.92 c 6.48,3.24 10.5,9.75 10.5,16.99 v 17.11 c 0,1.66 -1.34,3 -3,3 z"
           fill="#ffffff"
           stroke-width="0"
           id="path106" />
        <path
           d="m 60,199.89 c -1.1,0 -2.16,-0.61 -2.69,-1.66 -0.74,-1.48 -0.14,-3.28 1.34,-4.03 l 18,-9 c 1.48,-0.74 3.28,-0.14 4.03,1.34 0.74,1.48 0.14,3.28 -1.34,4.03 l -18,9 c -0.43,0.21 -0.89,0.32 -1.34,0.32 z"
           fill="#ffffff"
           stroke-width="0"
           id="path108" />
      </g>
    </g>
  </g>
</svg>
