<svg xmlns="http://www.w3.org/2000/svg" xmlns:svg="http://www.w3.org/2000/svg" id="svg16" width="379.009" height="98.875" version="1.1" viewBox="0 0 379.009 98.875"><metadata id="metadata22"/><defs id="defs20"><rect id="rect26" width="312.275" height="65.805" x="100.189" y="58"/></defs><g id="g14" fill="none" fill-rule="evenodd" transform="translate(-7.4405,-8.2509811)"><path id="path2" fill="#fff" stroke="#000" stroke-width="2.178" d="M 71.63,16.18 V 12 c 0,-1.47 1.19,-2.66 2.66,-2.66 1.47,0 2.66,1.19 2.66,2.66 v 4.18 m -14.27,0 V 12 c 0,-1.47 1.19,-2.66 2.66,-2.66 A 2.65,2.65 0 0 1 68,11.99 v 4.18 M 53.72,16.18 V 12 c 0,-1.47 1.19,-2.66 2.66,-2.66 1.47,0 2.66,1.19 2.66,2.66 v 4.18 m -14.28,0 V 12 c 0,-1.47 1.19,-2.66 2.66,-2.66 1.47,0 2.66,1.19 2.66,2.66 v 4.18 m -14.28,0 V 12 c 0,-1.47 1.19,-2.66 2.66,-2.66 1.47,0 2.66,1.19 2.66,2.66 v 4.18 m -14.27,0 V 12 c 0,-1.47 1.19,-2.66 2.66,-2.66 1.47,0 2.66,1.19 2.66,2.66 v 4.18 m 44.78,39.89 v 4.68 c 0,1.47 -1.19,2.66 -2.66,2.66 -1.47,0 -2.66,-1.19 -2.66,-2.66 v -4.68 m -3.63,0 v 4.68 c 0,1.47 -1.19,2.66 -2.66,2.66 -1.47,0 -2.66,-1.19 -2.66,-2.66 v -4.68 m -3.64,0 v 4.68 c 0,1.47 -1.19,2.66 -2.66,2.66 -1.47,0 -2.66,-1.19 -2.66,-2.66 v -4.68 m -3.64,0 v 4.68 c 0,1.47 -1.19,2.66 -2.66,2.66 -1.47,0 -2.66,-1.19 -2.66,-2.66 v -4.68 m -3.64,0 v 4.68 c 0,1.47 -1.19,2.66 -2.66,2.66 -1.47,0 -2.66,-1.19 -2.66,-2.66 v -4.68 m -3.63,0.26 v 4.43 c 0,1.47 -1.19,2.66 -2.66,2.66 -1.47,0 -2.66,-1.19 -2.66,-2.66 v -4.43"/><path id="path4" fill="#fff" stroke="#000" stroke-width="2.42" d="M 78.29,16.18 H 25.51 a 0.97,0.97 0 0 0 -0.97,0.97 v 37.96 c 0,0.53 0.43,0.97 0.97,0.97 h 52.77 c 0.53,0 0.97,-0.43 0.97,-0.97 V 17.15 c 0,-0.54 -0.43,-0.97 -0.96,-0.97 z"/><path id="path6" fill="#000" fill-rule="nonzero" d="m 40.5,38.32 h 2.87 v 7.75 h 17.25 v -7.75 h 2.87 l -2.89,-2.9 v -5.07 h -1.8 v 3.28 l -6.81,-6.81 z"/><path id="path8" stroke="#000" stroke-linecap="round" stroke-linejoin="round" stroke-width="1.961" d="m 40.5,38.32 h 2.87 v 7.75 h 17.25 v -7.75 h 2.87 l -2.89,-2.9 v -5.07 h -1.8 v 3.28 l -6.81,-6.81 z"/><path id="path10" stroke="#000" stroke-linecap="round" stroke-linejoin="round" stroke-width="2.159" d="M 24.34,53.77 H 8.52 V 49.88 H 20.38 V 45.99 H 8.52 V 42.11 H 20.38 V 38.22 H 8.52 V 34.33 H 20.38 V 30.45 H 8.52 V 18.47"/><path id="path12" fill="#000" d="m 100.19,13.586 h 31.816 V 26.154 H 126 v -7.5 h -15.85 v 14.21 h 13.33 v 5.038 H 110.15 V 52.961 H 126 v -7.5 h 6.006 V 58 h -31.817 v -5.04 h 4.22 V 18.655 h -4.22 z m 60.498,12.07 q 0,-2.578 -0.938,-3.867 -0.938,-1.289 -2.08,-1.963 -1.113,-0.703 -2.461,-1.055 -1.348,-0.38 -2.695,-0.38 -2.227,0 -3.897,0.527 -1.67,0.498 -2.783,1.377 -1.084,0.879 -1.64,2.05 -0.556,1.171 -0.557,2.462 0,1.933 0.674,3.134 0.703,1.172 1.757,1.905 1.055,0.703 2.315,1.113 1.289,0.41 2.46,0.82 l 5.919,1.934 q 2.666,0.85 4.687,1.933 2.051,1.084 3.428,2.579 1.377,1.464 2.08,3.398 0.732,1.934 0.732,4.482 0,2.754 -1.142,5.098 -1.113,2.344 -3.135,4.072 -2.021,1.729 -4.834,2.725 -2.783,0.967 -6.123,0.967 -3.428,0 -5.86,-0.791 -2.43,-0.762 -4.1,-2.051 -1.641,-1.318 -2.638,-2.988 -0.996,-1.67 -1.552,-3.428 h -2.227 v -5.04 h 7.383 q 0,3.253 0.674,4.6 0.703,1.348 1.933,2.256 1.23,0.88 2.93,1.348 1.7,0.44 3.75,0.44 1.992,0 3.574,-0.47 1.612,-0.468 2.725,-1.347 1.142,-0.908 1.728,-2.168 0.616,-1.289 0.616,-2.9 0,-1.787 -0.762,-3.018 -0.733,-1.26 -1.904,-2.139 -1.172,-0.878 -2.579,-1.435 -1.376,-0.557 -2.666,-0.967 l -6.416,-1.816 q -2.109,-0.645 -3.867,-1.64 -1.728,-0.997 -2.988,-2.433 -1.23,-1.435 -1.904,-3.34 -0.674,-1.933 -0.674,-4.453 0,-2.548 0.996,-4.775 0.996,-2.226 2.93,-3.896 1.933,-1.67 4.716,-2.608 2.813,-0.967 6.416,-0.967 2.374,0 4.366,0.557 2.021,0.557 3.633,1.582 1.64,0.996 2.87,2.432 1.26,1.406 2.11,3.105 h 2.197 v 5.04 z m 12.744,-12.07 h 17.959 q 2.988,0 5.478,0.791 2.52,0.762 4.336,2.285 1.846,1.494 2.842,3.75 1.025,2.256 1.025,5.186 0,2.431 -0.996,4.6 -0.996,2.138 -2.812,3.75 -1.817,1.61 -4.366,2.548 -2.52,0.938 -5.625,0.938 h -7.88 V 52.96 h 4.453 V 58 h -14.414 v -5.04 h 4.218 V 18.655 h -4.218 z m 9.96,5.068 V 32.63 h 7.999 q 1.67,0 3.046,-0.44 1.407,-0.468 2.403,-1.347 1.025,-0.88 1.582,-2.197 0.586,-1.319 0.586,-3.047 0,-3.282 -1.992,-5.098 -1.993,-1.846 -6.358,-1.846 z m 58.506,-5.068 h 14.414 v 5.039 h -4.218 v 34.336 h 4.219 V 58 h -14.415 v -5.04 h 4.454 V 36.995 h -25.694 v 15.967 h 4.453 V 58 h -14.414 v -5.04 h 4.219 V 18.626 h -4.219 v -5.04 h 14.414 v 5.04 h -4.453 v 13.447 h 25.694 V 18.625 h -4.454 z m 21.153,29.238 q 0.03,-3.603 1.142,-6.562 1.143,-2.96 3.164,-5.069 2.022,-2.138 4.805,-3.28 2.783,-1.143 6.123,-1.143 3.37,0 6.152,1.142 2.813,1.143 4.805,3.252 1.992,2.08 3.106,5.04 1.113,2.958 1.113,6.562 0,3.545 -1.113,6.533 -1.114,2.959 -3.106,5.097 -1.992,2.14 -4.805,3.34 -2.783,1.172 -6.152,1.172 -3.428,0 -6.21,-1.172 -2.784,-1.172 -4.776,-3.28 -1.992,-2.14 -3.106,-5.099 -1.113,-2.959 -1.142,-6.533 z m 5.771,0 q 0,2.608 0.733,4.717 0.761,2.11 2.05,3.604 1.319,1.464 3.018,2.285 1.729,0.79 3.662,0.79 2.022,0 3.75,-0.79 1.758,-0.791 3.047,-2.256 1.29,-1.494 2.022,-3.604 0.732,-2.11 0.732,-4.746 0,-2.754 -0.732,-4.892 -0.733,-2.139 -2.022,-3.575 -1.26,-1.435 -3.018,-2.168 -1.757,-0.732 -3.779,-0.732 -1.933,0 -3.662,0.732 -1.7,0.733 -3.018,2.168 -1.289,1.436 -2.05,3.575 -0.733,2.138 -0.733,4.892 z M 299.32,27.648 h 9.668 v 3.545 h 0.059 q 0.996,-0.85 2.08,-1.582 1.113,-0.761 2.314,-1.318 1.202,-0.557 2.49,-0.879 1.319,-0.322 2.725,-0.322 3.282,0 5.655,1.23 2.373,1.201 3.662,3.78 1.113,-0.997 2.343,-1.905 1.23,-0.937 2.55,-1.611 1.347,-0.674 2.812,-1.084 1.465,-0.41 3.047,-0.41 2.46,0 4.423,0.674 1.963,0.673 3.34,2.05 1.377,1.377 2.08,3.545 0.733,2.139 0.733,5.069 v 14.53 h 4.219 V 58 h -14.18 v -5.04 h 4.277 V 39.105 q 0,-3.487 -1.758,-5.274 -1.757,-1.816 -5.068,-1.816 -1.963,0 -4.014,0.937 -2.05,0.938 -3.515,2.373 v 17.637 h 4.19 V 58 H 319.3 v -5.04 h 4.277 V 39.105 q 0,-3.487 -1.787,-5.274 -1.758,-1.816 -5.068,-1.816 -1.905,0 -3.838,0.908 -1.934,0.908 -3.662,2.256 V 52.96 h 4.277 V 58 h -14.18 v -5.04 h 4.22 V 32.688 h -4.22 z m 65.274,15.88 q 0,1.288 0.176,2.372 0.205,1.055 0.556,2.022 1.084,2.93 3.457,4.424 2.403,1.465 5.42,1.465 2.373,0 4.6,-0.645 2.256,-0.674 4.717,-2.08 l 2.197,3.72 q -2.988,2.051 -6.006,3.048 -3.018,0.996 -6.27,0.996 -3.076,0 -5.712,-1.026 -2.608,-1.025 -4.512,-3.047 -1.875,-2.021 -2.96,-5.039 -1.054,-3.017 -1.054,-7.031 0,-3.252 0.908,-6.123 0.909,-2.9 2.696,-5.04 1.816,-2.167 4.482,-3.427 2.666,-1.26 6.211,-1.26 3.428,0 5.713,1.055 2.314,1.026 3.75,2.754 1.465,1.7 2.197,3.897 0.762,2.197 1.055,4.482 0.146,1.113 0.176,2.256 0.058,1.142 0.058,2.226 z m 8.525,-12.1 q -1.904,0 -3.34,0.556 -1.406,0.528 -2.402,1.553 -0.996,0.996 -1.611,2.461 -0.586,1.465 -0.88,3.281 h 15.733 q -0.117,-1.699 -0.557,-3.134 -0.41,-1.436 -1.289,-2.49 -0.878,-1.055 -2.255,-1.641 -1.377,-0.586 -3.399,-0.586 z" aria-label="ESPHome"/></g><text id="text24" transform="translate(-7.4405,-8.2509811)" xml:space="preserve" style="font-style:normal;font-weight:400;font-size:53.3333px;line-height:1.25;font-family:sans-serif;white-space:pre;shape-inside:url(#rect26);fill:#000;fill-opacity:1;stroke:none"><tspan x="100.189" y="106.658"><tspan style="font-style:normal;font-variant:normal;font-weight:400;font-stretch:normal;font-size:53.3333px;font-family:Consolas;-inkscape-font-specification:Consolas">Devices</tspan></tspan></text></svg>