<svg xmlns="http://www.w3.org/2000/svg" xmlns:ev="http://www.w3.org/2001/xml-events" xmlns:xlink="http://www.w3.org/1999/xlink" width="1024" height="500" baseProfile="full" version="1.1" viewBox="0 0 1024 500"><rect width="1024" height="500" x="0" y="0" fill="#fff" stroke="#000" stroke-width="1.2"/><linearGradient id="id1" x1="405.493" x2="217.093" y1="80.74" y2="323.14" gradientUnits="userSpaceOnUse"><stop offset="0%" stop-color="#f9f9f9"/><stop offset="100%" stop-color="#ededed"/></linearGradient><rect width="188.4" height="242.4" x="217.093" y="80.74" fill="url(#id1) none" stroke="#b5a739" stroke-width="1.2" rx="0" ry="0"/><rect width="18" height="1.2" x="216.493" y="288.94" fill="#b5a739" rx="0" ry="0"/><rect width="1.2" height="33.6" x="234.493" y="288.94" fill="#b5a739" rx="0" ry="0"/><rect width="19.2" height="34.2" x="215.293" y="290.14" fill="#fff" rx="0" ry="0"/><rect width="19.2" height="1.2" x="385.693" y="288.94" fill="#b5a739" rx="0" ry="0"/><rect width="1.2" height="33.6" x="385.693" y="288.94" fill="#b5a739" rx="0" ry="0"/><rect width="20.4" height="34.2" x="386.893" y="290.14" fill="#fff" rx="0" ry="0"/><linearGradient id="id2" x1="392.893" x2="229.693" y1="147.34" y2="285.34" gradientUnits="userSpaceOnUse"><stop offset="0%" stop-color="#f5f5f5"/><stop offset="100%" stop-color="#999"/></linearGradient><rect width="163.2" height="138" x="229.693" y="147.34" fill="url(#id2) none" rx="6" ry="6"/><rect id="tuyau.front.left.pin1.trace" width="5.88" height="10.08" x="216.493" y="148.3" fill="#e5b472" rx="0" ry="0"/><circle id="tuyau.front.left.pin1.cast" cx="216.493" cy="153.34" r="2.94" fill="#fff"/><rect id="tuyau.front.left.pin2.trace" width="5.88" height="10.08" x="216.493" y="165.1" fill="#e5b472" rx="0" ry="0"/><circle id="tuyau.front.left.pin2.cast" cx="216.493" cy="170.14" r="2.94" fill="#fff"/><rect id="tuyau.front.left.pin3.trace" width="5.88" height="10.08" x="216.493" y="181.9" fill="#e5b472" rx="0" ry="0"/><circle id="tuyau.front.left.pin3.cast" cx="216.493" cy="186.94" r="2.94" fill="#fff"/><rect id="tuyau.front.left.pin4.trace" width="5.88" height="10.08" x="216.493" y="198.7" fill="#e5b472" rx="0" ry="0"/><circle id="tuyau.front.left.pin4.cast" cx="216.493" cy="203.74" r="2.94" fill="#fff"/><rect id="tuyau.front.left.pin5.trace" width="5.88" height="10.08" x="216.493" y="215.5" fill="#e5b472" rx="0" ry="0"/><circle id="tuyau.front.left.pin5.cast" cx="216.493" cy="220.54" r="2.94" fill="#fff"/><rect id="tuyau.front.left.pin6.trace" width="5.88" height="10.08" x="216.493" y="232.3" fill="#e5b472" rx="0" ry="0"/><circle id="tuyau.front.left.pin6.cast" cx="216.493" cy="237.34" r="2.94" fill="#fff"/><rect id="tuyau.front.left.pin7.trace" width="5.88" height="10.08" x="216.493" y="249.1" fill="#e5b472" rx="0" ry="0"/><circle id="tuyau.front.left.pin7.cast" cx="216.493" cy="254.14" r="2.94" fill="#fff"/><rect id="r_pins_horz.pin1.trace" width="12.96" height="7.56" x="240.013" y="316.18" fill="#e5b472" rx="0" ry="0"/><circle id="r_pins_horz.pin1.cast" cx="246.493" cy="323.74" r="3.78" fill="#fff"/><rect id="r_pins_horz.pin2.trace" width="12.96" height="7.56" x="261.613" y="316.18" fill="#e5b472" rx="0" ry="0"/><circle id="r_pins_horz.pin2.cast" cx="268.093" cy="323.74" r="3.78" fill="#fff"/><rect id="r_pins_horz.pin3.trace" width="12.96" height="7.56" x="283.213" y="316.18" fill="#e5b472" rx="0" ry="0"/><circle id="r_pins_horz.pin3.cast" cx="289.693" cy="323.74" r="3.78" fill="#fff"/><rect id="r_pins_horz.pin4.trace" width="12.96" height="7.56" x="304.813" y="316.18" fill="#e5b472" rx="0" ry="0"/><circle id="r_pins_horz.pin4.cast" cx="311.293" cy="323.74" r="3.78" fill="#fff"/><rect id="r_pins_horz.pin5.trace" width="12.96" height="7.56" x="326.413" y="316.18" fill="#e5b472" rx="0" ry="0"/><circle id="r_pins_horz.pin5.cast" cx="332.893" cy="323.74" r="3.78" fill="#fff"/><rect id="r_pins_horz.pin6.trace" width="12.96" height="7.56" x="348.013" y="316.18" fill="#e5b472" rx="0" ry="0"/><circle id="r_pins_horz.pin6.cast" cx="354.493" cy="323.74" r="3.78" fill="#fff"/><rect id="r_pins_horz.pin7.trace" width="12.96" height="7.56" x="369.613" y="316.18" fill="#e5b472" rx="0" ry="0"/><circle id="r_pins_horz.pin7.cast" cx="376.093" cy="323.74" r="3.78" fill="#fff"/><rect id="r_pins_horz.pin1.pad" width="12.96" height="28.8" x="240.013" y="290.14" fill="#e5b472" rx="0" ry="0"/><rect id="r_pins_horz.pin2.pad" width="12.96" height="28.8" x="261.613" y="290.14" fill="#e5b472" rx="0" ry="0"/><rect id="r_pins_horz.pin3.pad" width="12.96" height="28.8" x="283.213" y="290.14" fill="#e5b472" rx="0" ry="0"/><rect id="r_pins_horz.pin4.pad" width="12.96" height="28.8" x="304.813" y="290.14" fill="#e5b472" rx="0" ry="0"/><rect id="r_pins_horz.pin5.pad" width="12.96" height="28.8" x="326.413" y="290.14" fill="#e5b472" rx="0" ry="0"/><rect id="r_pins_horz.pin6.pad" width="12.96" height="28.8" x="348.013" y="290.14" fill="#e5b472" rx="0" ry="0"/><rect id="r_pins_horz.pin7.pad" width="12.96" height="28.8" x="369.613" y="290.14" fill="#e5b472" rx="0" ry="0"/><rect width="2.16" height="21.6" x="245.413" y="325.9" fill="#4e4c4c" rx="0" ry="0"/><rect width="2.16" height="2.16" x="243.253" y="345.34" fill="#4e4c4c" rx="0" ry="0"/><rect id="tuyau.front.down.label1.anchor" width="0" height="0" x="465.145" y="426.56" rx="0" ry="0"/><rect width="2.16" height="43.2" x="267.013" y="325.9" fill="#4e4c4c" rx="0" ry="0"/><rect width="23.76" height="2.16" x="243.253" y="366.94" fill="#4e4c4c" rx="0" ry="0"/><rect id="tuyau.front.down.label2.anchor" width="0" height="0" x="465.145" y="448.16" rx="0" ry="0"/><rect width="2.16" height="64.8" x="288.613" y="325.9" fill="#4e4c4c" rx="0" ry="0"/><rect width="45.36" height="2.16" x="243.253" y="388.54" fill="#4e4c4c" rx="0" ry="0"/><rect id="tuyau.front.down.label3.anchor" width="0" height="0" x="465.145" y="469.76" rx="0" ry="0"/><rect width="2.16" height="86.4" x="310.213" y="325.9" fill="#4e4c4c" rx="0" ry="0"/><rect width="66.96" height="2.16" x="243.253" y="410.14" fill="#4e4c4c" rx="0" ry="0"/><rect id="tuyau.front.down.label4.anchor" width="0" height="0" x="465.145" y="491.36" rx="0" ry="0"/><rect width="2.16" height="86.4" x="331.813" y="325.9" fill="#4e4c4c" rx="0" ry="0"/><rect width="66.96" height="2.16" x="332.893" y="410.14" fill="#4e4c4c" rx="0" ry="0"/><rect id="tuyau.front.down.label5.anchor" width="0" height="0" x="610.945" y="491.36" rx="0" ry="0"/><rect width="2.16" height="64.8" x="353.413" y="325.9" fill="#4e4c4c" rx="0" ry="0"/><rect width="45.36" height="2.16" x="354.493" y="388.54" fill="#4e4c4c" rx="0" ry="0"/><rect id="tuyau.front.down.label6.anchor" width="0" height="0" x="610.945" y="469.76" rx="0" ry="0"/><rect width="2.16" height="43.2" x="375.013" y="325.9" fill="#4e4c4c" rx="0" ry="0"/><rect width="23.76" height="2.16" x="376.093" y="366.94" fill="#4e4c4c" rx="0" ry="0"/><rect id="tuyau.front.down.label7.anchor" width="0" height="0" x="610.945" y="448.16" rx="0" ry="0"/><rect id="tuyau.front.right.pin1.trace" width="5.88" height="10.08" x="400.213" y="148.3" fill="#e5b472" rx="0" ry="0"/><circle id="tuyau.front.right.pin1.cast" cx="406.093" cy="153.34" r="2.94" fill="#fff"/><rect id="tuyau.front.right.pin2.trace" width="5.88" height="10.08" x="400.213" y="165.1" fill="#e5b472" rx="0" ry="0"/><circle id="tuyau.front.right.pin2.cast" cx="406.093" cy="170.14" r="2.94" fill="#fff"/><rect id="tuyau.front.right.pin3.trace" width="5.88" height="10.08" x="400.213" y="181.9" fill="#e5b472" rx="0" ry="0"/><circle id="tuyau.front.right.pin3.cast" cx="406.093" cy="186.94" r="2.94" fill="#fff"/><rect id="tuyau.front.right.pin4.trace" width="5.88" height="10.08" x="400.213" y="198.7" fill="#e5b472" rx="0" ry="0"/><circle id="tuyau.front.right.pin4.cast" cx="406.093" cy="203.74" r="2.94" fill="#fff"/><rect id="tuyau.front.right.pin5.trace" width="5.88" height="10.08" x="400.213" y="215.5" fill="#e5b472" rx="0" ry="0"/><circle id="tuyau.front.right.pin5.cast" cx="406.093" cy="220.54" r="2.94" fill="#fff"/><rect id="tuyau.front.right.pin6.trace" width="5.88" height="10.08" x="400.213" y="232.3" fill="#e5b472" rx="0" ry="0"/><circle id="tuyau.front.right.pin6.cast" cx="406.093" cy="237.34" r="2.94" fill="#fff"/><rect id="tuyau.front.right.pin7.trace" width="5.88" height="10.08" x="400.213" y="249.1" fill="#e5b472" rx="0" ry="0"/><circle id="tuyau.front.right.pin7.cast" cx="406.093" cy="254.14" r="2.94" fill="#fff"/><text x="294.493" y="140.14" fill="#000" font-family="Consolas" font-size="12">CBU</text><rect width="5.925" height="53.193" x="229.528" y="88.324" fill="#e0e0e0" rx="0" ry="0"/><rect width="54.51" height="5.115" x="229.528" y="88.324" fill="#e0e0e0" rx="0" ry="0"/><rect width="5.925" height="53.193" x="255.598" y="88.324" fill="#e0e0e0" rx="0" ry="0"/><rect width="5.925" height="30.689" x="278.113" y="88.324" fill="#e0e0e0" rx="0" ry="0"/><rect width="35.55" height="5.115" x="278.113" y="113.897" fill="#e0e0e0" rx="0" ry="0"/><rect width="5.925" height="30.689" x="307.738" y="88.324" fill="#e0e0e0" rx="0" ry="0"/><rect width="31.995" height="5.115" x="307.738" y="88.324" fill="#e0e0e0" rx="0" ry="0"/><rect width="5.925" height="30.689" x="333.808" y="88.324" fill="#e0e0e0" rx="0" ry="0"/><rect width="35.55" height="5.115" x="333.808" y="113.897" fill="#e0e0e0" rx="0" ry="0"/><rect width="5.925" height="30.689" x="363.433" y="88.324" fill="#e0e0e0" rx="0" ry="0"/><rect width="29.625" height="5.115" x="363.433" y="88.324" fill="#e0e0e0" rx="0" ry="0"/><rect width="5.925" height="45.01" x="387.133" y="88.324" fill="#e0e0e0" rx="0" ry="0"/><rect width="21.84" height="1.68" x="190.453" y="152.5" fill="#4e4c4c"/><g transform="translate(172.0933475320984,146.61999999999995)"><rect width="15.12" height="13.44" x="0" y="0" fill="#4e4c4c" rx="3.6" ry="3.6" transform="skewX(-15)"/></g><text x="177.853" y="153.34" fill="#fff" dominant-baseline="central" font-family="Consolas" font-size="10.08" text-anchor="middle">1</text><g transform="translate(141.8533475320984,146.61999999999995)"><rect width="28.56" height="13.44" x="0" y="0" fill="maroon" rx="3.6" ry="3.6" transform="skewX(-15)"/></g><text x="154.333" y="153.34" fill="#fff" dominant-baseline="central" font-family="Consolas" font-size="10.08" text-anchor="middle">P14</text><g transform="translate(111.6133475320984,146.61999999999995)"><rect width="28.56" height="13.44" x="0" y="0" fill="#e9ba33" rx="3.6" ry="3.6" transform="skewX(-15)"/></g><text x="124.093" y="153.34" fill="#423F42" dominant-baseline="central" font-family="Consolas" font-size="10.08" text-anchor="middle">SCK</text><rect width="21.84" height="1.68" x="190.453" y="169.3" fill="#4e4c4c"/><g transform="translate(172.0933475320984,163.41999999999996)"><rect width="15.12" height="13.44" x="0" y="0" fill="#4e4c4c" rx="3.6" ry="3.6" transform="skewX(-15)"/></g><text x="177.853" y="170.14" fill="#fff" dominant-baseline="central" font-family="Consolas" font-size="10.08" text-anchor="middle">2</text><g transform="translate(141.8533475320984,163.41999999999996)"><rect width="28.56" height="13.44" x="0" y="0" fill="maroon" rx="3.6" ry="3.6" transform="skewX(-15)"/></g><text x="154.333" y="170.14" fill="#fff" dominant-baseline="central" font-family="Consolas" font-size="10.08" text-anchor="middle">P16</text><g transform="translate(111.6133475320984,163.41999999999996)"><rect width="28.56" height="13.44" x="0" y="0" fill="#e9ba33" rx="3.6" ry="3.6" transform="skewX(-15)"/></g><text x="124.093" y="170.14" fill="#423F42" dominant-baseline="central" font-family="Consolas" font-size="10.08" text-anchor="middle">MOSI</text><rect width="21.84" height="1.68" x="190.453" y="186.1" fill="#4e4c4c"/><g transform="translate(172.0933475320984,180.21999999999994)"><rect width="15.12" height="13.44" x="0" y="0" fill="#4e4c4c" rx="3.6" ry="3.6" transform="skewX(-15)"/></g><text x="177.853" y="186.94" fill="#fff" dominant-baseline="central" font-family="Consolas" font-size="10.08" text-anchor="middle">3</text><g transform="translate(141.8533475320984,180.21999999999994)"><rect width="28.56" height="13.44" x="0" y="0" fill="maroon" rx="3.6" ry="3.6" transform="skewX(-15)"/></g><text x="154.333" y="186.94" fill="#fff" dominant-baseline="central" font-family="Consolas" font-size="10.08" text-anchor="middle">P20</text><g transform="translate(111.6133475320984,180.21999999999994)"><rect width="28.56" height="13.44" x="0" y="0" fill="#f95" rx="3.6" ry="3.6" transform="skewX(-15)"/></g><text x="124.093" y="186.94" fill="#423F42" dominant-baseline="central" font-family="Consolas" font-size="10.08" text-anchor="middle">SCL1</text><g transform="translate(81.37334753209842,180.21999999999994)"><rect width="28.56" height="13.44" x="0" y="0" fill="#ffe680" rx="3.6" ry="3.6" transform="skewX(-15)"/></g><text x="93.853" y="186.94" fill="#423F42" dominant-baseline="central" font-family="Consolas" font-size="10.08" text-anchor="middle">TCK</text><rect width="21.84" height="1.68" x="190.453" y="202.9" fill="#4e4c4c"/><g transform="translate(172.0933475320984,197.01999999999998)"><rect width="15.12" height="13.44" x="0" y="0" fill="#4e4c4c" rx="3.6" ry="3.6" transform="skewX(-15)"/></g><text x="177.853" y="203.74" fill="#fff" dominant-baseline="central" font-family="Consolas" font-size="10.08" text-anchor="middle">4</text><g transform="translate(141.8533475320984,197.01999999999998)"><rect width="28.56" height="13.44" x="0" y="0" fill="maroon" rx="3.6" ry="3.6" transform="skewX(-15)"/></g><text x="154.333" y="203.74" fill="#fff" dominant-baseline="central" font-family="Consolas" font-size="10.08" text-anchor="middle">P22</text><g transform="translate(111.6133475320984,197.01999999999998)"><rect width="28.56" height="13.44" x="0" y="0" fill="#ffe680" rx="3.6" ry="3.6" transform="skewX(-15)"/></g><text x="124.093" y="203.74" fill="#423F42" dominant-baseline="central" font-family="Consolas" font-size="10.08" text-anchor="middle">TDI</text><rect width="21.84" height="1.68" x="190.453" y="219.7" fill="#4e4c4c"/><g transform="translate(172.0933475320984,213.82)"><rect width="15.12" height="13.44" x="0" y="0" fill="#4e4c4c" rx="3.6" ry="3.6" transform="skewX(-15)"/></g><text x="177.853" y="220.54" fill="#fff" dominant-baseline="central" font-family="Consolas" font-size="10.08" text-anchor="middle">5</text><g transform="translate(141.8533475320984,213.82)"><rect width="28.56" height="13.44" x="0" y="0" fill="maroon" rx="3.6" ry="3.6" transform="skewX(-15)"/></g><text x="154.333" y="220.54" fill="#fff" dominant-baseline="central" font-family="Consolas" font-size="10.08" text-anchor="middle">P23</text><g transform="translate(111.6133475320984,213.82)"><rect width="28.56" height="13.44" x="0" y="0" fill="#8ad039" rx="3.6" ry="3.6" transform="skewX(-15)"/></g><text x="124.093" y="220.54" fill="#423F42" dominant-baseline="central" font-family="Consolas" font-size="10.08" text-anchor="middle">ADC3</text><g transform="translate(81.37334753209842,213.82)"><rect width="28.56" height="13.44" x="0" y="0" fill="#ffe680" rx="3.6" ry="3.6" transform="skewX(-15)"/></g><text x="93.853" y="220.54" fill="#423F42" dominant-baseline="central" font-family="Consolas" font-size="10.08" text-anchor="middle">TDO</text><rect width="21.84" height="1.68" x="190.453" y="236.5" fill="#4e4c4c"/><g transform="translate(172.0933475320984,230.61999999999995)"><rect width="15.12" height="13.44" x="0" y="0" fill="#4e4c4c" rx="3.6" ry="3.6" transform="skewX(-15)"/></g><text x="177.853" y="237.34" fill="#fff" dominant-baseline="central" font-family="Consolas" font-size="10.08" text-anchor="middle">6</text><g transform="translate(141.8533475320984,230.61999999999995)"><rect width="28.56" height="13.44" x="0" y="0" fill="maroon" rx="3.6" ry="3.6" transform="skewX(-15)"/></g><text x="154.333" y="237.34" fill="#fff" dominant-baseline="central" font-family="Consolas" font-size="10.08" text-anchor="middle">P1</text><g transform="translate(111.6133475320984,230.61999999999995)"><rect width="28.56" height="13.44" x="0" y="0" fill="#dcd4ee" rx="3.6" ry="3.6" transform="skewX(-15)"/></g><text x="124.093" y="237.34" fill="#423F42" dominant-baseline="central" font-family="Consolas" font-size="10.08" text-anchor="middle">RX2</text><g transform="translate(81.37334753209842,230.61999999999995)"><rect width="28.56" height="13.44" x="0" y="0" fill="#f95" rx="3.6" ry="3.6" transform="skewX(-15)"/></g><text x="93.853" y="237.34" fill="#423F42" dominant-baseline="central" font-family="Consolas" font-size="10.08" text-anchor="middle">SDA2</text><rect width="21.84" height="1.68" x="190.453" y="253.3" fill="#4e4c4c"/><g transform="translate(172.0933475320984,247.41999999999996)"><rect width="15.12" height="13.44" x="0" y="0" fill="#4e4c4c" rx="3.6" ry="3.6" transform="skewX(-15)"/></g><text x="177.853" y="254.14" fill="#fff" dominant-baseline="central" font-family="Consolas" font-size="10.08" text-anchor="middle">7</text><g transform="translate(141.8533475320984,247.41999999999996)"><rect width="28.56" height="13.44" x="0" y="0" fill="maroon" rx="3.6" ry="3.6" transform="skewX(-15)"/></g><text x="154.333" y="254.14" fill="#fff" dominant-baseline="central" font-family="Consolas" font-size="10.08" text-anchor="middle">P0</text><g transform="translate(111.6133475320984,247.41999999999996)"><rect width="28.56" height="13.44" x="0" y="0" fill="#dcd4ee" rx="3.6" ry="3.6" transform="skewX(-15)"/></g><text x="124.093" y="254.14" fill="#423F42" dominant-baseline="central" font-family="Consolas" font-size="10.08" text-anchor="middle">TX2</text><g transform="translate(81.37334753209842,247.41999999999996)"><rect width="28.56" height="13.44" x="0" y="0" fill="#f95" rx="3.6" ry="3.6" transform="skewX(-15)"/></g><text x="93.853" y="254.14" fill="#423F42" dominant-baseline="central" font-family="Consolas" font-size="10.08" text-anchor="middle">SCL2</text><rect width="28.08" height="2.16" x="215.173" y="345.34" fill="#4e4c4c"/><g transform="translate(191.56780998156617,337.78)"><rect width="19.44" height="17.28" x="0" y="0" fill="#4e4c4c" rx="3.6" ry="3.6" transform="skewX(-15)"/></g><text x="198.973" y="346.42" fill="#fff" dominant-baseline="central" font-family="Consolas" font-size="12.96" text-anchor="middle">8</text><g transform="translate(152.68780998156615,337.78)"><rect width="36.72" height="17.28" x="0" y="0" fill="maroon" rx="3.6" ry="3.6" transform="skewX(-15)"/></g><text x="168.733" y="346.42" fill="#fff" dominant-baseline="central" font-family="Consolas" font-size="12.96" text-anchor="middle">P8</text><g transform="translate(113.80780998156614,337.78)"><rect width="36.72" height="17.28" x="0" y="0" fill="#afa35e" rx="3.6" ry="3.6" transform="skewX(-15)"/></g><text x="129.853" y="346.42" fill="#423F42" dominant-baseline="central" font-family="Consolas" font-size="12.96" text-anchor="middle">PWM2</text><rect width="28.08" height="2.16" x="215.173" y="366.94" fill="#4e4c4c"/><g transform="translate(191.56780998156617,359.38)"><rect width="19.44" height="17.28" x="0" y="0" fill="#4e4c4c" rx="3.6" ry="3.6" transform="skewX(-15)"/></g><text x="198.973" y="368.02" fill="#fff" dominant-baseline="central" font-family="Consolas" font-size="12.96" text-anchor="middle">9</text><g transform="translate(152.68780998156615,359.38)"><rect width="36.72" height="17.28" x="0" y="0" fill="maroon" rx="3.6" ry="3.6" transform="skewX(-15)"/></g><text x="168.733" y="368.02" fill="#fff" dominant-baseline="central" font-family="Consolas" font-size="12.96" text-anchor="middle">P7</text><g transform="translate(113.80780998156614,359.38)"><rect width="36.72" height="17.28" x="0" y="0" fill="#afa35e" rx="3.6" ry="3.6" transform="skewX(-15)"/></g><text x="129.853" y="368.02" fill="#423F42" dominant-baseline="central" font-family="Consolas" font-size="12.96" text-anchor="middle">PWM1</text><rect width="28.08" height="2.16" x="215.173" y="388.54" fill="#4e4c4c"/><g transform="translate(191.56780998156617,380.98)"><rect width="19.44" height="17.28" x="0" y="0" fill="#4e4c4c" rx="3.6" ry="3.6" transform="skewX(-15)"/></g><text x="198.973" y="389.62" fill="#fff" dominant-baseline="central" font-family="Consolas" font-size="12.96" text-anchor="middle">10</text><g transform="translate(152.68780998156615,380.98)"><rect width="36.72" height="17.28" x="0" y="0" fill="maroon" rx="3.6" ry="3.6" transform="skewX(-15)"/></g><text x="168.733" y="389.62" fill="#fff" dominant-baseline="central" font-family="Consolas" font-size="12.96" text-anchor="middle">P6</text><g transform="translate(113.80780998156614,380.98)"><rect width="36.72" height="17.28" x="0" y="0" fill="#afa35e" rx="3.6" ry="3.6" transform="skewX(-15)"/></g><text x="129.853" y="389.62" fill="#423F42" dominant-baseline="central" font-family="Consolas" font-size="12.96" text-anchor="middle">PWM0</text><rect width="28.08" height="2.16" x="215.173" y="410.14" fill="#4e4c4c"/><g transform="translate(191.56780998156617,402.58)"><rect width="19.44" height="17.28" x="0" y="0" fill="#4e4c4c" rx="3.6" ry="3.6" transform="skewX(-15)"/></g><text x="198.973" y="411.22" fill="#fff" dominant-baseline="central" font-family="Consolas" font-size="12.96" text-anchor="middle">11</text><g transform="translate(152.68780998156615,402.58)"><rect width="36.72" height="17.28" x="0" y="0" fill="maroon" rx="3.6" ry="3.6" transform="skewX(-15)"/></g><text x="168.733" y="411.22" fill="#fff" dominant-baseline="central" font-family="Consolas" font-size="12.96" text-anchor="middle">P26</text><g transform="translate(113.80780998156614,402.58)"><rect width="36.72" height="17.28" x="0" y="0" fill="#aeafc1" rx="3.6" ry="3.6" transform="skewX(-15)"/></g><text x="129.853" y="411.22" fill="#423F42" dominant-baseline="central" font-family="Consolas" font-size="12.96" text-anchor="middle">IRDA</text><g transform="translate(74.92780998156614,402.58)"><rect width="36.72" height="17.28" x="0" y="0" fill="#afa35e" rx="3.6" ry="3.6" transform="skewX(-15)"/></g><text x="90.973" y="411.22" fill="#423F42" dominant-baseline="central" font-family="Consolas" font-size="12.96" text-anchor="middle">PWM5</text><rect width="28.08" height="2.16" x="399.853" y="410.14" fill="#4e4c4c"/><g transform="translate(436.7278099815662,402.58)"><rect width="19.44" height="17.28" x="0" y="0" fill="#4e4c4c" rx="3.6" ry="3.6" transform="skewX(-15)"/></g><text x="444.133" y="411.22" fill="#fff" dominant-baseline="central" font-family="Consolas" font-size="12.96" text-anchor="middle">12</text><g transform="translate(458.3278099815662,402.58)"><rect width="36.72" height="17.28" x="0" y="0" fill="maroon" rx="3.6" ry="3.6" transform="skewX(-15)"/></g><text x="474.373" y="411.22" fill="#fff" dominant-baseline="central" font-family="Consolas" font-size="12.96" text-anchor="middle">P24</text><g transform="translate(497.20780998156613,402.58)"><rect width="36.72" height="17.28" x="0" y="0" fill="#afa35e" rx="3.6" ry="3.6" transform="skewX(-15)"/></g><text x="513.253" y="411.22" fill="#423F42" dominant-baseline="central" font-family="Consolas" font-size="12.96" text-anchor="middle">PWM4</text><rect width="28.08" height="2.16" x="399.853" y="388.54" fill="#4e4c4c"/><g transform="translate(436.7278099815662,380.98)"><rect width="19.44" height="17.28" x="0" y="0" fill="#4e4c4c" rx="3.6" ry="3.6" transform="skewX(-15)"/></g><text x="444.133" y="389.62" fill="#fff" dominant-baseline="central" font-family="Consolas" font-size="12.96" text-anchor="middle">13</text><g transform="translate(458.3278099815662,380.98)"><rect width="36.72" height="17.28" x="0" y="0" fill="#000" rx="3.6" ry="3.6" transform="skewX(-15)"/></g><text x="474.373" y="389.62" fill="#fff" dominant-baseline="central" font-family="Consolas" font-size="12.96" text-anchor="middle">GND</text><rect width="28.08" height="2.16" x="399.853" y="366.94" fill="#4e4c4c"/><g transform="translate(436.7278099815662,359.38)"><rect width="19.44" height="17.28" x="0" y="0" fill="#4e4c4c" rx="3.6" ry="3.6" transform="skewX(-15)"/></g><text x="444.133" y="368.02" fill="#fff" dominant-baseline="central" font-family="Consolas" font-size="12.96" text-anchor="middle">14</text><g transform="translate(458.3278099815662,359.38)"><rect width="36.72" height="17.28" x="0" y="0" fill="#cd3c24" rx="3.6" ry="3.6" transform="skewX(-15)"/></g><text x="474.373" y="368.02" fill="#fff" dominant-baseline="central" font-family="Consolas" font-size="12.96" text-anchor="middle">3V3</text><rect width="21.84" height="1.68" x="410.293" y="253.3" fill="#4e4c4c"/><g transform="translate(438.97334753209844,247.41999999999996)"><rect width="15.12" height="13.44" x="0" y="0" fill="#4e4c4c" rx="3.6" ry="3.6" transform="skewX(-15)"/></g><text x="444.733" y="254.14" fill="#fff" dominant-baseline="central" font-family="Consolas" font-size="10.08" text-anchor="middle">15</text><g transform="translate(455.77334753209834,247.41999999999996)"><rect width="28.56" height="13.44" x="0" y="0" fill="maroon" rx="3.6" ry="3.6" transform="skewX(-15)"/></g><text x="468.253" y="254.14" fill="#fff" dominant-baseline="central" font-family="Consolas" font-size="10.08" text-anchor="middle">P11</text><g transform="translate(486.01334753209835,247.41999999999996)"><rect width="28.56" height="13.44" x="0" y="0" fill="#dcd4ee" rx="3.6" ry="3.6" transform="skewX(-15)"/></g><text x="498.493" y="254.14" fill="#423F42" dominant-baseline="central" font-family="Consolas" font-size="10.08" text-anchor="middle">TX1</text><rect width="21.84" height="1.68" x="410.293" y="236.5" fill="#4e4c4c"/><g transform="translate(438.97334753209844,230.61999999999995)"><rect width="15.12" height="13.44" x="0" y="0" fill="#4e4c4c" rx="3.6" ry="3.6" transform="skewX(-15)"/></g><text x="444.733" y="237.34" fill="#fff" dominant-baseline="central" font-family="Consolas" font-size="10.08" text-anchor="middle">16</text><g transform="translate(455.77334753209834,230.61999999999995)"><rect width="28.56" height="13.44" x="0" y="0" fill="maroon" rx="3.6" ry="3.6" transform="skewX(-15)"/></g><text x="468.253" y="237.34" fill="#fff" dominant-baseline="central" font-family="Consolas" font-size="10.08" text-anchor="middle">P10</text><g transform="translate(486.01334753209835,230.61999999999995)"><rect width="28.56" height="13.44" x="0" y="0" fill="#dcd4ee" rx="3.6" ry="3.6" transform="skewX(-15)"/></g><text x="498.493" y="237.34" fill="#423F42" dominant-baseline="central" font-family="Consolas" font-size="10.08" text-anchor="middle">RX1</text><rect width="21.84" height="1.68" x="410.293" y="219.7" fill="#4e4c4c"/><g transform="translate(438.97334753209844,213.82)"><rect width="15.12" height="13.44" x="0" y="0" fill="#4e4c4c" rx="3.6" ry="3.6" transform="skewX(-15)"/></g><text x="444.733" y="220.54" fill="#fff" dominant-baseline="central" font-family="Consolas" font-size="10.08" text-anchor="middle">17</text><g transform="translate(455.77334753209834,213.82)"><rect width="28.56" height="13.44" x="0" y="0" fill="maroon" rx="3.6" ry="3.6" transform="skewX(-15)"/></g><text x="468.253" y="220.54" fill="#fff" dominant-baseline="central" font-family="Consolas" font-size="10.08" text-anchor="middle">P28</text><rect width="21.84" height="1.68" x="410.293" y="202.9" fill="#4e4c4c"/><g transform="translate(438.97334753209844,197.01999999999998)"><rect width="15.12" height="13.44" x="0" y="0" fill="#4e4c4c" rx="3.6" ry="3.6" transform="skewX(-15)"/></g><text x="444.733" y="203.74" fill="#fff" dominant-baseline="central" font-family="Consolas" font-size="10.08" text-anchor="middle">18</text><g transform="translate(455.77334753209834,197.01999999999998)"><rect width="28.56" height="13.44" x="0" y="0" fill="#ed602e" rx="3.6" ry="3.6" transform="skewX(-15)"/></g><text x="468.253" y="203.74" fill="#423F42" dominant-baseline="central" font-family="Consolas" font-size="10.08" text-anchor="middle">CEN</text><rect width="21.84" height="1.68" x="410.293" y="186.1" fill="#4e4c4c"/><g transform="translate(438.97334753209844,180.21999999999994)"><rect width="15.12" height="13.44" x="0" y="0" fill="#4e4c4c" rx="3.6" ry="3.6" transform="skewX(-15)"/></g><text x="444.733" y="186.94" fill="#fff" dominant-baseline="central" font-family="Consolas" font-size="10.08" text-anchor="middle">19</text><g transform="translate(455.77334753209834,180.21999999999994)"><rect width="28.56" height="13.44" x="0" y="0" fill="maroon" rx="3.6" ry="3.6" transform="skewX(-15)"/></g><text x="468.253" y="186.94" fill="#fff" dominant-baseline="central" font-family="Consolas" font-size="10.08" text-anchor="middle">P9</text><g transform="translate(486.01334753209835,180.21999999999994)"><rect width="28.56" height="13.44" x="0" y="0" fill="#afa35e" rx="3.6" ry="3.6" transform="skewX(-15)"/></g><text x="498.493" y="186.94" fill="#423F42" dominant-baseline="central" font-family="Consolas" font-size="10.08" text-anchor="middle">PWM3</text><rect width="21.84" height="1.68" x="410.293" y="169.3" fill="#4e4c4c"/><g transform="translate(438.97334753209844,163.41999999999996)"><rect width="15.12" height="13.44" x="0" y="0" fill="#4e4c4c" rx="3.6" ry="3.6" transform="skewX(-15)"/></g><text x="444.733" y="170.14" fill="#fff" dominant-baseline="central" font-family="Consolas" font-size="10.08" text-anchor="middle">20</text><g transform="translate(455.77334753209834,163.41999999999996)"><rect width="28.56" height="13.44" x="0" y="0" fill="maroon" rx="3.6" ry="3.6" transform="skewX(-15)"/></g><text x="468.253" y="170.14" fill="#fff" dominant-baseline="central" font-family="Consolas" font-size="10.08" text-anchor="middle">P17</text><g transform="translate(486.01334753209835,163.41999999999996)"><rect width="28.56" height="13.44" x="0" y="0" fill="#e9ba33" rx="3.6" ry="3.6" transform="skewX(-15)"/></g><text x="498.493" y="170.14" fill="#423F42" dominant-baseline="central" font-family="Consolas" font-size="10.08" text-anchor="middle">MISO</text><rect width="21.84" height="1.68" x="410.293" y="152.5" fill="#4e4c4c"/><g transform="translate(438.97334753209844,146.61999999999995)"><rect width="15.12" height="13.44" x="0" y="0" fill="#4e4c4c" rx="3.6" ry="3.6" transform="skewX(-15)"/></g><text x="444.733" y="153.34" fill="#fff" dominant-baseline="central" font-family="Consolas" font-size="10.08" text-anchor="middle">21</text><g transform="translate(455.77334753209834,146.61999999999995)"><rect width="28.56" height="13.44" x="0" y="0" fill="maroon" rx="3.6" ry="3.6" transform="skewX(-15)"/></g><text x="468.253" y="153.34" fill="#fff" dominant-baseline="central" font-family="Consolas" font-size="10.08" text-anchor="middle">P15</text><g transform="translate(486.01334753209835,146.61999999999995)"><rect width="28.56" height="13.44" x="0" y="0" fill="#e9ba33" rx="3.6" ry="3.6" transform="skewX(-15)"/></g><text x="498.493" y="153.34" fill="#423F42" dominant-baseline="central" font-family="Consolas" font-size="10.08" text-anchor="middle">CS</text><linearGradient id="id3" x1="969.243" x2="780.843" y1="126.91" y2="369.31" gradientUnits="userSpaceOnUse"><stop offset="0%" stop-color="#f9f9f9"/><stop offset="100%" stop-color="#ededed"/></linearGradient><rect width="188.4" height="242.4" x="780.843" y="126.91" fill="url(#id3) none" stroke="#b5a739" stroke-width="1.2" rx="0" ry="0"/><rect width="18" height="1.2" x="780.243" y="335.11" fill="#b5a739" rx="0" ry="0"/><rect width="1.2" height="33.6" x="798.243" y="335.11" fill="#b5a739" rx="0" ry="0"/><rect width="19.2" height="34.2" x="779.043" y="336.31" fill="#fff" rx="0" ry="0"/><rect width="19.2" height="1.2" x="949.443" y="335.11" fill="#b5a739" rx="0" ry="0"/><rect width="1.2" height="33.6" x="949.443" y="335.11" fill="#b5a739" rx="0" ry="0"/><rect width="20.4" height="34.2" x="950.643" y="336.31" fill="#fff" rx="0" ry="0"/><rect id="r_pins_vert.pin1.trace" width="5.88" height="10.08" x="780.243" y="194.47" fill="#e5b472" rx="0" ry="0"/><circle id="r_pins_vert.pin1.cast" cx="780.243" cy="199.51" r="2.94" fill="#fff"/><rect id="r_pins_vert.pin2.trace" width="5.88" height="10.08" x="780.243" y="211.27" fill="#e5b472" rx="0" ry="0"/><circle id="r_pins_vert.pin2.cast" cx="780.243" cy="216.31" r="2.94" fill="#fff"/><rect id="r_pins_vert.pin3.trace" width="5.88" height="10.08" x="780.243" y="228.07" fill="#e5b472" rx="0" ry="0"/><circle id="r_pins_vert.pin3.cast" cx="780.243" cy="233.11" r="2.94" fill="#fff"/><rect id="r_pins_vert.pin4.trace" width="5.88" height="10.08" x="780.243" y="244.87" fill="#e5b472" rx="0" ry="0"/><circle id="r_pins_vert.pin4.cast" cx="780.243" cy="249.91" r="2.94" fill="#fff"/><rect id="r_pins_vert.pin5.trace" width="5.88" height="10.08" x="780.243" y="261.67" fill="#e5b472" rx="0" ry="0"/><circle id="r_pins_vert.pin5.cast" cx="780.243" cy="266.71" r="2.94" fill="#fff"/><rect id="r_pins_vert.pin6.trace" width="5.88" height="10.08" x="780.243" y="278.47" fill="#e5b472" rx="0" ry="0"/><circle id="r_pins_vert.pin6.cast" cx="780.243" cy="283.51" r="2.94" fill="#fff"/><rect id="r_pins_vert.pin7.trace" width="5.88" height="10.08" x="780.243" y="295.27" fill="#e5b472" rx="0" ry="0"/><circle id="r_pins_vert.pin7.cast" cx="780.243" cy="300.31" r="2.94" fill="#fff"/><rect id="r_pins_horz.pin1.trace" width="12.96" height="7.56" x="803.763" y="362.35" fill="#e5b472" rx="0" ry="0"/><circle id="r_pins_horz.pin1.cast" cx="810.243" cy="369.91" r="3.78" fill="#fff"/><rect id="r_pins_horz.pin2.trace" width="12.96" height="7.56" x="825.363" y="362.35" fill="#e5b472" rx="0" ry="0"/><circle id="r_pins_horz.pin2.cast" cx="831.843" cy="369.91" r="3.78" fill="#fff"/><rect id="r_pins_horz.pin3.trace" width="12.96" height="7.56" x="846.963" y="362.35" fill="#e5b472" rx="0" ry="0"/><circle id="r_pins_horz.pin3.cast" cx="853.443" cy="369.91" r="3.78" fill="#fff"/><rect id="r_pins_horz.pin4.trace" width="12.96" height="7.56" x="868.563" y="362.35" fill="#e5b472" rx="0" ry="0"/><circle id="r_pins_horz.pin4.cast" cx="875.043" cy="369.91" r="3.78" fill="#fff"/><rect id="r_pins_horz.pin5.trace" width="12.96" height="7.56" x="890.163" y="362.35" fill="#e5b472" rx="0" ry="0"/><circle id="r_pins_horz.pin5.cast" cx="896.643" cy="369.91" r="3.78" fill="#fff"/><rect id="r_pins_horz.pin6.trace" width="12.96" height="7.56" x="911.763" y="362.35" fill="#e5b472" rx="0" ry="0"/><circle id="r_pins_horz.pin6.cast" cx="918.243" cy="369.91" r="3.78" fill="#fff"/><rect id="r_pins_horz.pin7.trace" width="12.96" height="7.56" x="933.363" y="362.35" fill="#e5b472" rx="0" ry="0"/><circle id="r_pins_horz.pin7.cast" cx="939.843" cy="369.91" r="3.78" fill="#fff"/><rect id="r_pins_horz.pin1.pad" width="12.96" height="28.8" x="803.763" y="336.31" fill="#e5b472" rx="0" ry="0"/><rect id="r_pins_horz.pin2.pad" width="12.96" height="28.8" x="825.363" y="336.31" fill="#e5b472" rx="0" ry="0"/><rect id="r_pins_horz.pin3.pad" width="12.96" height="28.8" x="846.963" y="336.31" fill="#e5b472" rx="0" ry="0"/><rect id="r_pins_horz.pin4.pad" width="12.96" height="28.8" x="868.563" y="336.31" fill="#e5b472" rx="0" ry="0"/><rect id="r_pins_horz.pin5.pad" width="12.96" height="28.8" x="890.163" y="336.31" fill="#e5b472" rx="0" ry="0"/><rect id="r_pins_horz.pin6.pad" width="12.96" height="28.8" x="911.763" y="336.31" fill="#e5b472" rx="0" ry="0"/><rect id="r_pins_horz.pin7.pad" width="12.96" height="28.8" x="933.363" y="336.31" fill="#e5b472" rx="0" ry="0"/><rect id="r_pins_vert.pin1.trace" width="5.88" height="10.08" x="963.963" y="194.47" fill="#e5b472" rx="0" ry="0"/><circle id="r_pins_vert.pin1.cast" cx="969.843" cy="199.51" r="2.94" fill="#fff"/><rect id="r_pins_vert.pin2.trace" width="5.88" height="10.08" x="963.963" y="211.27" fill="#e5b472" rx="0" ry="0"/><circle id="r_pins_vert.pin2.cast" cx="969.843" cy="216.31" r="2.94" fill="#fff"/><rect id="r_pins_vert.pin3.trace" width="5.88" height="10.08" x="963.963" y="228.07" fill="#e5b472" rx="0" ry="0"/><circle id="r_pins_vert.pin3.cast" cx="969.843" cy="233.11" r="2.94" fill="#fff"/><rect id="r_pins_vert.pin4.trace" width="5.88" height="10.08" x="963.963" y="244.87" fill="#e5b472" rx="0" ry="0"/><circle id="r_pins_vert.pin4.cast" cx="969.843" cy="249.91" r="2.94" fill="#fff"/><rect id="r_pins_vert.pin5.trace" width="5.88" height="10.08" x="963.963" y="261.67" fill="#e5b472" rx="0" ry="0"/><circle id="r_pins_vert.pin5.cast" cx="969.843" cy="266.71" r="2.94" fill="#fff"/><rect id="r_pins_vert.pin6.trace" width="5.88" height="10.08" x="963.963" y="278.47" fill="#e5b472" rx="0" ry="0"/><circle id="r_pins_vert.pin6.cast" cx="969.843" cy="283.51" r="2.94" fill="#fff"/><rect id="r_pins_vert.pin7.trace" width="5.88" height="10.08" x="963.963" y="295.27" fill="#e5b472" rx="0" ry="0"/><circle id="r_pins_vert.pin7.cast" cx="969.843" cy="300.31" r="2.94" fill="#fff"/><rect width="34.8" height="34.8" x="855.843" y="265.51" fill="#e5b472" rx="0" ry="0"/><rect width="2.4" height="0" x="823.443" y="285.91" fill="#4e4c4c" rx="0" ry="0"/><rect width="2.4" height="2.4" x="821.043" y="285.91" fill="#4e4c4c" rx="0" ry="0"/><rect id="cbu.back.csn.anchor" width="0" height="0" x="1607.285" y="413.42" rx="0" ry="0"/><circle cx="833.043" cy="287.11" r="6" fill="#e5b472"/><rect width="31.2" height="2.4" x="789.843" y="285.91" fill="#4e4c4c"/><g transform="translate(744.4150412063002,277.50999999999993)"><rect width="40.8" height="19.2" x="0" y="0" fill="maroon" rx="3.6" ry="3.6" transform="skewX(-15)"/></g><text x="762.243" y="287.11" fill="#fff" dominant-baseline="central" font-family="Consolas" font-size="14.4" text-anchor="middle">P21</text><g transform="translate(701.2150412063003,277.50999999999993)"><rect width="40.8" height="19.2" x="0" y="0" fill="#f95" rx="3.6" ry="3.6" transform="skewX(-15)"/></g><text x="719.043" y="287.11" fill="#423F42" dominant-baseline="central" font-family="Consolas" font-size="14.4" text-anchor="middle">SDA1</text><g transform="translate(658.0150412063002,277.50999999999993)"><rect width="40.8" height="19.2" x="0" y="0" fill="#ffe680" rx="3.6" ry="3.6" transform="skewX(-15)"/></g><text x="675.843" y="287.11" fill="#423F42" dominant-baseline="central" font-family="Consolas" font-size="14.4" text-anchor="middle">TMS</text></svg>